<svg id="visual" viewBox="0 0 900 600" width="900" height="600" xmlns="http://www.w3.org/2000/svg" xmlns:xlink="http://www.w3.org/1999/xlink" version="1.1"><rect x="0" y="0" width="900" height="600" fill="#001220"></rect><defs><linearGradient id="grad1_0" x1="33.3%" y1="0%" x2="100%" y2="100%"><stop offset="20%" stop-color="#fbae3c" stop-opacity="1"></stop><stop offset="80%" stop-color="#fbae3c" stop-opacity="1"></stop></linearGradient></defs><defs><linearGradient id="grad1_1" x1="33.3%" y1="0%" x2="100%" y2="100%"><stop offset="20%" stop-color="#fbae3c" stop-opacity="1"></stop><stop offset="80%" stop-color="#eb7458" stop-opacity="1"></stop></linearGradient></defs><defs><linearGradient id="grad1_2" x1="33.3%" y1="0%" x2="100%" y2="100%"><stop offset="20%" stop-color="#b84e6c" stop-opacity="1"></stop><stop offset="80%" stop-color="#eb7458" stop-opacity="1"></stop></linearGradient></defs><defs><linearGradient id="grad1_3" x1="33.3%" y1="0%" x2="100%" y2="100%"><stop offset="20%" stop-color="#b84e6c" stop-opacity="1"></stop><stop offset="80%" stop-color="#713c69" stop-opacity="1"></stop></linearGradient></defs><defs><linearGradient id="grad1_4" x1="33.3%" y1="0%" x2="100%" y2="100%"><stop offset="20%" stop-color="#2d2b4c" stop-opacity="1"></stop><stop offset="80%" stop-color="#713c69" stop-opacity="1"></stop></linearGradient></defs><defs><linearGradient id="grad1_5" x1="33.3%" y1="0%" x2="100%" y2="100%"><stop offset="20%" stop-color="#2d2b4c" stop-opacity="1"></stop><stop offset="80%" stop-color="#001220" stop-opacity="1"></stop></linearGradient></defs><defs><linearGradient id="grad2_0" x1="0%" y1="0%" x2="66.7%" y2="100%"><stop offset="20%" stop-color="#fbae3c" stop-opacity="1"></stop><stop offset="80%" stop-color="#fbae3c" stop-opacity="1"></stop></linearGradient></defs><defs><linearGradient id="grad2_1" x1="0%" y1="0%" x2="66.7%" y2="100%"><stop offset="20%" stop-color="#eb7458" stop-opacity="1"></stop><stop offset="80%" stop-color="#fbae3c" stop-opacity="1"></stop></linearGradient></defs><defs><linearGradient id="grad2_2" x1="0%" y1="0%" x2="66.7%" y2="100%"><stop offset="20%" stop-color="#eb7458" stop-opacity="1"></stop><stop offset="80%" stop-color="#b84e6c" stop-opacity="1"></stop></linearGradient></defs><defs><linearGradient id="grad2_3" x1="0%" y1="0%" x2="66.7%" y2="100%"><stop offset="20%" stop-color="#713c69" stop-opacity="1"></stop><stop offset="80%" stop-color="#b84e6c" stop-opacity="1"></stop></linearGradient></defs><defs><linearGradient id="grad2_4" x1="0%" y1="0%" x2="66.7%" y2="100%"><stop offset="20%" stop-color="#713c69" stop-opacity="1"></stop><stop offset="80%" stop-color="#2d2b4c" stop-opacity="1"></stop></linearGradient></defs><defs><linearGradient id="grad2_5" x1="0%" y1="0%" x2="66.7%" y2="100%"><stop offset="20%" stop-color="#001220" stop-opacity="1"></stop><stop offset="80%" stop-color="#2d2b4c" stop-opacity="1"></stop></linearGradient></defs><g transform="translate(900, 0)"><path d="M0 486.7C-45 466.1 -90 445.5 -141.2 434.6C-192.4 423.8 -249.7 422.8 -286.1 393.8C-322.5 364.8 -338 307.8 -361.6 262.7C-385.3 217.7 -417.2 184.6 -439.4 142.8C-461.6 101 -474.2 50.5 -486.7 0L0 0Z" fill="#131f37"></path><path d="M0 405.6C-37.5 388.4 -75 371.2 -117.7 362.2C-160.3 353.2 -208.1 352.3 -238.4 328.2C-268.7 304 -281.6 256.5 -301.4 219C-321.1 181.4 -347.6 153.8 -366.2 119C-384.7 84.1 -395.1 42.1 -405.6 0L0 0Z" fill="#4d345e"></path><path d="M0 324.5C-30 310.7 -60 297 -94.1 289.8C-128.3 282.5 -166.5 281.9 -190.7 262.5C-215 243.2 -225.3 205.2 -241.1 175.2C-256.9 145.1 -278.1 123 -292.9 95.2C-307.7 67.3 -316.1 33.7 -324.5 0L0 0Z" fill="#96446e"></path><path d="M0 243.4C-22.5 233.1 -45 222.7 -70.6 217.3C-96.2 211.9 -124.9 211.4 -143.1 196.9C-161.2 182.4 -169 153.9 -180.8 131.4C-192.6 108.8 -208.6 92.3 -219.7 71.4C-230.8 50.5 -237.1 25.2 -243.4 0L0 0Z" fill="#d55e64"></path><path d="M0 162.2C-15 155.4 -30 148.5 -47.1 144.9C-64.1 141.3 -83.2 140.9 -95.4 131.3C-107.5 121.6 -112.7 102.6 -120.5 87.6C-128.4 72.6 -139.1 61.5 -146.5 47.6C-153.9 33.7 -158.1 16.8 -162.2 0L0 0Z" fill="#f88f4a"></path><path d="M0 81.1C-7.5 77.7 -15 74.2 -23.5 72.4C-32.1 70.6 -41.6 70.5 -47.7 65.6C-53.7 60.8 -56.3 51.3 -60.3 43.8C-64.2 36.3 -69.5 30.8 -73.2 23.8C-76.9 16.8 -79 8.4 -81.1 0L0 0Z" fill="#fbae3c"></path></g><g transform="translate(0, 600)"><path d="M0 -486.7C38.5 -446.1 77.1 -405.5 129.2 -397.5C181.3 -389.6 247 -414.3 286.1 -393.8C325.2 -373.2 337.8 -307.4 355.2 -258C372.5 -208.7 394.8 -175.9 417.5 -135.7C440.3 -95.4 463.5 -47.7 486.7 0L0 0Z" fill="#131f37"></path><path d="M0 -405.6C32.1 -371.8 64.2 -337.9 107.6 -331.3C151.1 -324.7 205.8 -345.3 238.4 -328.2C271 -311 281.5 -256.1 296 -215C310.5 -173.9 329 -146.6 347.9 -113C366.9 -79.5 386.3 -39.8 405.6 0L0 0Z" fill="#4d345e"></path><path d="M0 -324.5C25.7 -297.4 51.4 -270.3 86.1 -265C120.9 -259.7 164.7 -276.2 190.7 -262.5C216.8 -248.8 225.2 -204.9 236.8 -172C248.4 -139.1 263.2 -117.3 278.3 -90.4C293.5 -63.6 309 -31.8 324.5 0L0 0Z" fill="#96446e"></path><path d="M0 -243.4C19.3 -223.1 38.5 -202.7 64.6 -198.8C90.6 -194.8 123.5 -207.2 143.1 -196.9C162.6 -186.6 168.9 -153.7 177.6 -129C186.3 -104.4 197.4 -88 208.8 -67.8C220.1 -47.7 231.8 -23.9 243.4 0L0 0Z" fill="#d55e64"></path><path d="M0 -162.2C12.8 -148.7 25.7 -135.2 43.1 -132.5C60.4 -129.9 82.3 -138.1 95.4 -131.3C108.4 -124.4 112.6 -102.5 118.4 -86C124.2 -69.6 131.6 -58.6 139.2 -45.2C146.8 -31.8 154.5 -15.9 162.2 0L0 0Z" fill="#f88f4a"></path><path d="M0 -81.1C6.4 -74.4 12.8 -67.6 21.5 -66.3C30.2 -64.9 41.2 -69.1 47.7 -65.6C54.2 -62.2 56.3 -51.2 59.2 -43C62.1 -34.8 65.8 -29.3 69.6 -22.6C73.4 -15.9 77.3 -8 81.1 0L0 0Z" fill="#fbae3c"></path></g></svg>