<svg id="visual" viewBox="0 0 900 600" width="900" height="600" xmlns="http://www.w3.org/2000/svg" xmlns:xlink="http://www.w3.org/1999/xlink" version="1.1"><rect x="0" y="0" width="900" height="600" fill="#1f0619"></rect><defs><linearGradient id="grad1_0" x1="33.3%" y1="100%" x2="100%" y2="0%"><stop offset="20%" stop-color="#ff0066" stop-opacity="1"></stop><stop offset="80%" stop-color="#ff0066" stop-opacity="1"></stop></linearGradient></defs><defs><linearGradient id="grad1_1" x1="33.3%" y1="100%" x2="100%" y2="0%"><stop offset="20%" stop-color="#ff0066" stop-opacity="1"></stop><stop offset="80%" stop-color="#db0563" stop-opacity="1"></stop></linearGradient></defs><defs><linearGradient id="grad1_2" x1="33.3%" y1="100%" x2="100%" y2="0%"><stop offset="20%" stop-color="#b80d5d" stop-opacity="1"></stop><stop offset="80%" stop-color="#db0563" stop-opacity="1"></stop></linearGradient></defs><defs><linearGradient id="grad1_3" x1="33.3%" y1="100%" x2="100%" y2="0%"><stop offset="20%" stop-color="#b80d5d" stop-opacity="1"></stop><stop offset="80%" stop-color="#951254" stop-opacity="1"></stop></linearGradient></defs><defs><linearGradient id="grad1_4" x1="33.3%" y1="100%" x2="100%" y2="0%"><stop offset="20%" stop-color="#741448" stop-opacity="1"></stop><stop offset="80%" stop-color="#951254" stop-opacity="1"></stop></linearGradient></defs><defs><linearGradient id="grad1_5" x1="33.3%" y1="100%" x2="100%" y2="0%"><stop offset="20%" stop-color="#741448" stop-opacity="1"></stop><stop offset="80%" stop-color="#55133a" stop-opacity="1"></stop></linearGradient></defs><defs><linearGradient id="grad1_6" x1="33.3%" y1="100%" x2="100%" y2="0%"><stop offset="20%" stop-color="#380f2a" stop-opacity="1"></stop><stop offset="80%" stop-color="#55133a" stop-opacity="1"></stop></linearGradient></defs><defs><linearGradient id="grad1_7" x1="33.3%" y1="100%" x2="100%" y2="0%"><stop offset="20%" stop-color="#380f2a" stop-opacity="1"></stop><stop offset="80%" stop-color="#1f0619" stop-opacity="1"></stop></linearGradient></defs><defs><linearGradient id="grad2_0" x1="0%" y1="100%" x2="66.7%" y2="0%"><stop offset="20%" stop-color="#ff0066" stop-opacity="1"></stop><stop offset="80%" stop-color="#ff0066" stop-opacity="1"></stop></linearGradient></defs><defs><linearGradient id="grad2_1" x1="0%" y1="100%" x2="66.7%" y2="0%"><stop offset="20%" stop-color="#db0563" stop-opacity="1"></stop><stop offset="80%" stop-color="#ff0066" stop-opacity="1"></stop></linearGradient></defs><defs><linearGradient id="grad2_2" x1="0%" y1="100%" x2="66.7%" y2="0%"><stop offset="20%" stop-color="#db0563" stop-opacity="1"></stop><stop offset="80%" stop-color="#b80d5d" stop-opacity="1"></stop></linearGradient></defs><defs><linearGradient id="grad2_3" x1="0%" y1="100%" x2="66.7%" y2="0%"><stop offset="20%" stop-color="#951254" stop-opacity="1"></stop><stop offset="80%" stop-color="#b80d5d" stop-opacity="1"></stop></linearGradient></defs><defs><linearGradient id="grad2_4" x1="0%" y1="100%" x2="66.7%" y2="0%"><stop offset="20%" stop-color="#951254" stop-opacity="1"></stop><stop offset="80%" stop-color="#741448" stop-opacity="1"></stop></linearGradient></defs><defs><linearGradient id="grad2_5" x1="0%" y1="100%" x2="66.7%" y2="0%"><stop offset="20%" stop-color="#55133a" stop-opacity="1"></stop><stop offset="80%" stop-color="#741448" stop-opacity="1"></stop></linearGradient></defs><defs><linearGradient id="grad2_6" x1="0%" y1="100%" x2="66.7%" y2="0%"><stop offset="20%" stop-color="#55133a" stop-opacity="1"></stop><stop offset="80%" stop-color="#380f2a" stop-opacity="1"></stop></linearGradient></defs><defs><linearGradient id="grad2_7" x1="0%" y1="100%" x2="66.7%" y2="0%"><stop offset="20%" stop-color="#1f0619" stop-opacity="1"></stop><stop offset="80%" stop-color="#380f2a" stop-opacity="1"></stop></linearGradient></defs><g transform="translate(900, 600)"><path d="M-486.7 0C-462.6 -48 -438.5 -96 -411.8 -133.8C-385.1 -171.6 -355.8 -199.3 -339 -246.3C-322.2 -293.3 -317.8 -359.6 -286.1 -393.8C-254.4 -428 -195.3 -430.2 -143.1 -440.3C-90.8 -450.5 -45.4 -468.6 0 -486.7L0 0Z" fill="#2a0c22"></path><path d="M-425.9 0C-404.8 -42 -383.7 -84 -360.3 -117.1C-337 -150.2 -311.3 -174.4 -296.6 -215.5C-281.9 -256.6 -278.1 -314.6 -250.3 -344.6C-222.6 -374.5 -170.9 -376.4 -125.2 -385.3C-79.5 -394.2 -39.7 -410 0 -425.9L0 0Z" fill="#461132"></path><path d="M-365.1 0C-347 -36 -328.9 -72 -308.9 -100.4C-288.8 -128.7 -266.8 -149.5 -254.2 -184.7C-241.6 -219.9 -238.4 -269.7 -214.6 -295.3C-190.8 -321 -146.5 -322.6 -107.3 -330.3C-68.1 -337.9 -34.1 -351.5 0 -365.1L0 0Z" fill="#641341"></path><path d="M-304.2 0C-289.1 -30 -274.1 -60 -257.4 -83.6C-240.7 -107.3 -222.4 -124.6 -211.9 -153.9C-201.3 -183.3 -198.6 -224.7 -178.8 -246.1C-159 -267.5 -122.1 -268.9 -89.4 -275.2C-56.8 -281.6 -28.4 -292.9 0 -304.2L0 0Z" fill="#85134e"></path><path d="M-243.4 0C-231.3 -24 -219.3 -48 -205.9 -66.9C-192.5 -85.8 -177.9 -99.7 -169.5 -123.1C-161.1 -146.6 -158.9 -179.8 -143.1 -196.9C-127.2 -214 -97.7 -215.1 -71.5 -220.2C-45.4 -225.2 -22.7 -234.3 0 -243.4L0 0Z" fill="#a71059"></path><path d="M-182.5 0C-173.5 -18 -164.4 -36 -154.4 -50.2C-144.4 -64.4 -133.4 -74.7 -127.1 -92.4C-120.8 -110 -119.2 -134.8 -107.3 -147.7C-95.4 -160.5 -73.2 -161.3 -53.7 -165.1C-34.1 -168.9 -17 -175.7 0 -182.5L0 0Z" fill="#ca0960"></path><path d="M-121.7 0C-115.7 -12 -109.6 -24 -103 -33.5C-96.3 -42.9 -88.9 -49.8 -84.7 -61.6C-80.5 -73.3 -79.5 -89.9 -71.5 -98.4C-63.6 -107 -48.8 -107.5 -35.8 -110.1C-22.7 -112.6 -11.4 -117.2 0 -121.7L0 0Z" fill="#ed0165"></path><path d="M-60.8 0C-57.8 -6 -54.8 -12 -51.5 -16.7C-48.1 -21.5 -44.5 -24.9 -42.4 -30.8C-40.3 -36.7 -39.7 -44.9 -35.8 -49.2C-31.8 -53.5 -24.4 -53.8 -17.9 -55C-11.4 -56.3 -5.7 -58.6 0 -60.8L0 0Z" fill="#ff0066"></path></g><g transform="translate(0, 0)"><path d="M486.7 0C469.6 49.5 452.5 98.9 428 139.1C403.5 179.2 371.6 210 350.3 254.5C329.1 299.1 318.5 357.4 286.1 393.8C253.8 430.2 199.6 444.7 148.3 456.5C97 468.3 48.5 477.5 0 486.7L0 0Z" fill="#2a0c22"></path><path d="M425.9 0C410.9 43.3 395.9 86.6 374.5 121.7C353 156.8 325.1 183.7 306.5 222.7C287.9 261.7 278.7 312.7 250.3 344.6C222 376.4 174.7 389.1 129.8 399.4C84.9 409.8 42.4 417.9 0 425.9L0 0Z" fill="#461132"></path><path d="M365.1 0C352.2 37.1 339.4 74.2 321 104.3C302.6 134.4 278.7 157.5 262.7 190.9C246.8 224.3 238.8 268 214.6 295.3C190.3 322.6 149.7 333.5 111.2 342.4C72.8 351.3 36.4 358.2 0 365.1L0 0Z" fill="#641341"></path><path d="M304.2 0C293.5 30.9 282.8 61.8 267.5 86.9C252.2 112 232.2 131.2 218.9 159.1C205.7 186.9 199 223.4 178.8 246.1C158.6 268.9 124.8 277.9 92.7 285.3C60.6 292.7 30.3 298.5 0 304.2L0 0Z" fill="#85134e"></path><path d="M243.4 0C234.8 24.7 226.2 49.5 214 69.5C201.7 89.6 185.8 105 175.2 127.3C164.5 149.5 159.2 178.7 143.1 196.9C126.9 215.1 99.8 222.3 74.2 228.3C48.5 234.2 24.3 238.8 0 243.4L0 0Z" fill="#a71059"></path><path d="M182.5 0C176.1 18.6 169.7 37.1 160.5 52.1C151.3 67.2 139.3 78.7 131.4 95.4C123.4 112.1 119.4 134 107.3 147.7C95.2 161.3 74.9 166.8 55.6 171.2C36.4 175.6 18.2 179.1 0 182.5L0 0Z" fill="#ca0960"></path><path d="M121.7 0C117.4 12.4 113.1 24.7 107 34.8C100.9 44.8 92.9 52.5 87.6 63.6C82.3 74.8 79.6 89.3 71.5 98.4C63.4 107.5 49.9 111.2 37.1 114.1C24.3 117.1 12.1 119.4 0 121.7L0 0Z" fill="#ed0165"></path><path d="M60.8 0C58.7 6.2 56.6 12.4 53.5 17.4C50.4 22.4 46.4 26.2 43.8 31.8C41.1 37.4 39.8 44.7 35.8 49.2C31.7 53.8 25 55.6 18.5 57.1C12.1 58.5 6.1 59.7 0 60.8L0 0Z" fill="#ff0066"></path></g></svg>