<svg id="visual" viewBox="0 0 900 600" width="900" height="600" xmlns="http://www.w3.org/2000/svg" xmlns:xlink="http://www.w3.org/1999/xlink" version="1.1"><rect x="0" y="0" width="900" height="600" fill="#251622"></rect><defs><linearGradient id="grad1_0" x1="33.3%" y1="100%" x2="100%" y2="0%"><stop offset="20%" stop-color="#05ffc9" stop-opacity="1"></stop><stop offset="80%" stop-color="#05ffc9" stop-opacity="1"></stop></linearGradient></defs><defs><linearGradient id="grad1_1" x1="33.3%" y1="100%" x2="100%" y2="0%"><stop offset="20%" stop-color="#05ffc9" stop-opacity="1"></stop><stop offset="80%" stop-color="#00abd0" stop-opacity="1"></stop></linearGradient></defs><defs><linearGradient id="grad1_2" x1="33.3%" y1="100%" x2="100%" y2="0%"><stop offset="20%" stop-color="#3b5683" stop-opacity="1"></stop><stop offset="80%" stop-color="#00abd0" stop-opacity="1"></stop></linearGradient></defs><defs><linearGradient id="grad1_3" x1="33.3%" y1="100%" x2="100%" y2="0%"><stop offset="20%" stop-color="#3b5683" stop-opacity="1"></stop><stop offset="80%" stop-color="#251622" stop-opacity="1"></stop></linearGradient></defs><defs><linearGradient id="grad2_0" x1="0%" y1="100%" x2="66.7%" y2="0%"><stop offset="20%" stop-color="#05ffc9" stop-opacity="1"></stop><stop offset="80%" stop-color="#05ffc9" stop-opacity="1"></stop></linearGradient></defs><defs><linearGradient id="grad2_1" x1="0%" y1="100%" x2="66.7%" y2="0%"><stop offset="20%" stop-color="#00abd0" stop-opacity="1"></stop><stop offset="80%" stop-color="#05ffc9" stop-opacity="1"></stop></linearGradient></defs><defs><linearGradient id="grad2_2" x1="0%" y1="100%" x2="66.7%" y2="0%"><stop offset="20%" stop-color="#00abd0" stop-opacity="1"></stop><stop offset="80%" stop-color="#3b5683" stop-opacity="1"></stop></linearGradient></defs><defs><linearGradient id="grad2_3" x1="0%" y1="100%" x2="66.7%" y2="0%"><stop offset="20%" stop-color="#251622" stop-opacity="1"></stop><stop offset="80%" stop-color="#3b5683" stop-opacity="1"></stop></linearGradient></defs><g transform="translate(900, 600)"><path d="M-486.7 0C-489.5 -74.6 -492.2 -149.2 -447.2 -185.2C-402.1 -221.2 -309.4 -218.6 -264.5 -264.5C-219.5 -310.3 -222.4 -404.6 -186.3 -449.7C-150.2 -494.8 -75.1 -490.8 0 -486.7L0 0Z" fill="#3c324f"></path><path d="M-365.1 0C-367.1 -56 -369.1 -111.9 -335.4 -138.9C-301.6 -165.9 -232 -164 -198.3 -198.3C-164.6 -232.7 -166.8 -303.4 -139.7 -337.3C-112.6 -371.1 -56.3 -368.1 0 -365.1L0 0Z" fill="#007fb2"></path><path d="M-243.4 0C-244.7 -37.3 -246.1 -74.6 -223.6 -92.6C-201.1 -110.6 -154.7 -109.3 -132.2 -132.2C-109.8 -155.1 -111.2 -202.3 -93.1 -224.8C-75.1 -247.4 -37.5 -245.4 0 -243.4L0 0Z" fill="#00d6d7"></path><path d="M-121.7 0C-122.4 -18.7 -123 -37.3 -111.8 -46.3C-100.5 -55.3 -77.3 -54.7 -66.1 -66.1C-54.9 -77.6 -55.6 -101.1 -46.6 -112.4C-37.5 -123.7 -18.8 -122.7 0 -121.7L0 0Z" fill="#05ffc9"></path></g><g transform="translate(0, 0)"><path d="M486.7 0C453.5 61.2 420.2 122.5 375.1 155.4C330 188.3 273 192.8 246.1 246.1C219.1 299.4 222.3 401.5 186.3 449.7C150.3 497.9 75.1 492.3 0 486.7L0 0Z" fill="#3c324f"></path><path d="M365.1 0C340.1 45.9 315.2 91.9 281.3 116.5C247.5 141.2 204.7 144.6 184.6 184.6C164.4 224.5 166.7 301.1 139.7 337.3C112.7 373.5 56.4 369.3 0 365.1L0 0Z" fill="#007fb2"></path><path d="M243.4 0C226.7 30.6 210.1 61.2 187.5 77.7C165 94.1 136.5 96.4 123 123C109.6 149.7 111.1 200.7 93.1 224.8C75.1 249 37.6 246.2 0 243.4L0 0Z" fill="#00d6d7"></path><path d="M121.7 0C113.4 15.3 105.1 30.6 93.8 38.8C82.5 47.1 68.2 48.2 61.5 61.5C54.8 74.8 55.6 100.4 46.6 112.4C37.6 124.5 18.8 123.1 0 121.7L0 0Z" fill="#05ffc9"></path></g></svg>